<svg xmlns="http://www.w3.org/2000/svg" viewBox="0 0 480 280" role="img" aria-labelledby="tm">
  <title id="tm">Stylised HKU Moodle-style course dashboard with blocks and a course banner</title>
  <defs>
    <linearGradient id="mbg" x1="0" y1="0" x2="0" y2="1">
      <stop offset="0%" stop-color="#f4f7f6"/>
      <stop offset="100%" stop-color="#e8eeeb"/>
    </linearGradient>
  </defs>
  <rect width="480" height="280" fill="url(#mbg)"/>
  <rect x="0" y="0" width="480" height="44" fill="#1b4332"/>
  <text x="16" y="29" fill="#d8f3dc" font-family="Segoe UI, system-ui, sans-serif" font-size="15" font-weight="700">hkumoodle</text>
  <rect x="380" y="12" width="84" height="22" rx="4" fill="#40916c"/>
  <text x="392" y="27" fill="#fff" font-family="Segoe UI, system-ui, sans-serif" font-size="11" font-weight="600">Log in</text>
  <rect x="16" y="60" width="300" height="72" rx="8" fill="#fff" stroke="#b7e4c7" stroke-width="2"/>
  <rect x="28" y="72" width="120" height="10" rx="2" fill="#2d6a4f" opacity=".35"/>
  <rect x="28" y="92" width="200" height="8" rx="2" fill="#95d5b2"/>
  <rect x="28" y="108" width="160" height="8" rx="2" fill="#95d5b2" opacity=".7"/>
  <rect x="332" y="60" width="132" height="100" rx="8" fill="#fff" stroke="#b7e4c7" stroke-width="2"/>
  <rect x="344" y="74" width="108" height="8" rx="2" fill="#40916c" opacity=".4"/>
  <rect x="344" y="92" width="88" height="8" rx="2" fill="#74c69d"/>
  <rect x="344" y="110" width="100" height="8" rx="2" fill="#74c69d" opacity=".7"/>
  <rect x="16" y="148" width="220" height="112" rx="8" fill="#fff" stroke="#b7e4c7" stroke-width="2"/>
  <rect x="28" y="162" width="90" height="10" rx="2" fill="#1b4332" opacity=".5"/>
  <rect x="28" y="182" width="180" height="6" rx="2" fill="#cfe8d6"/>
  <rect x="28" y="196" width="150" height="6" rx="2" fill="#cfe8d6"/>
  <rect x="28" y="224" width="72" height="24" rx="6" fill="#2d6a4f"/>
  <text x="36" y="241" fill="#fff" font-family="Segoe UI, system-ui, sans-serif" font-size="11" font-weight="700">Submit</text>
  <rect x="252" y="148" width="212" height="112" rx="8" fill="#ffffff" stroke="#b7e4c7" stroke-width="2"/>
  <rect x="264" y="162" width="140" height="8" rx="2" fill="#2d6a4f" opacity=".3"/>
  <rect x="264" y="180" width="188" height="6" rx="2" fill="#d8f3dc"/>
  <rect x="264" y="194" width="160" height="6" rx="2" fill="#d8f3dc"/>
  <rect x="264" y="220" width="100" height="28" rx="6" fill="#ffd166" opacity=".9"/>
  <text x="276" y="239" fill="#1b4332" font-family="Segoe UI, system-ui, sans-serif" font-size="11" font-weight="700">Due soon</text>
</svg>
