<svg xmlns="http://www.w3.org/2000/svg" viewBox="0 0 480 280" role="img" aria-labelledby="tlb">
  <title id="tlb">Stylised HKU Libraries search page with stacks and a search bar</title>
  <rect width="480" height="280" fill="#f4f7f5"/>
  <rect x="0" y="0" width="480" height="48" fill="#1b4332"/>
  <text x="16" y="32" fill="#d8f3dc" font-family="Segoe UI, system-ui, sans-serif" font-size="15" font-weight="750">HKU Libraries</text>
  <rect x="56" y="72" width="368" height="44" rx="10" fill="#fff" stroke="#2d6a4f" stroke-width="2"/>
  <rect x="72" y="88" width="220" height="12" rx="3" fill="#95d5b2" opacity=".5"/>
  <rect x="360" y="82" width="48" height="28" rx="6" fill="#2d6a4f"/>
  <text x="372" y="101" fill="#fff" font-family="Segoe UI, system-ui, sans-serif" font-size="11" font-weight="700">Go</text>
  <rect x="40" y="140" width="120" height="120" rx="6" fill="#fff" stroke="#b7e4c7" stroke-width="2"/>
  <rect x="52" y="154" width="96" height="8" rx="2" fill="#40916c" opacity=".35"/>
  <rect x="52" y="170" width="80" height="6" rx="2" fill="#d8f3dc"/>
  <rect x="52" y="184" width="88" height="6" rx="2" fill="#d8f3dc"/>
  <rect x="180" y="140" width="120" height="120" rx="6" fill="#fff" stroke="#b7e4c7" stroke-width="2"/>
  <rect x="192" y="154" width="96" height="8" rx="2" fill="#40916c" opacity=".35"/>
  <rect x="192" y="170" width="72" height="6" rx="2" fill="#d8f3dc"/>
  <rect x="320" y="140" width="120" height="120" rx="6" fill="#fff" stroke="#b7e4c7" stroke-width="2"/>
  <rect x="332" y="154" width="96" height="8" rx="2" fill="#40916c" opacity=".35"/>
  <path d="M88 210h24v36H88z" fill="#2d6a4f" opacity=".2"/>
  <path d="M228 200h24v46h-24z" fill="#2d6a4f" opacity=".2"/>
  <path d="M368 206h24v40h-24z" fill="#2d6a4f" opacity=".2"/>
</svg>
